<mxfile host="app.diagrams.net" agent="Mozilla/5.0 (Windows NT 10.0; Win64; x64; rv:138.0) Gecko/20100101 Firefox/138.0" version="27.0.1" pages="6">
  <diagram name="Page-1" id="fIGLh4T39_yE1pV7Zdnq">
    <mxGraphModel grid="0" page="0" gridSize="10" guides="1" tooltips="1" connect="1" arrows="1" fold="1" pageScale="1" pageWidth="850" pageHeight="1100" math="0" shadow="0">
      <root>
        <mxCell id="0" />
        <mxCell id="1" parent="0" />
        <mxCell id="yxcw4a1VdJQ1mUFPhGz--3" value="" style="group" connectable="0" vertex="1" parent="1">
          <mxGeometry x="-20" y="74" width="85" height="87" as="geometry" />
        </mxCell>
        <mxCell id="yxcw4a1VdJQ1mUFPhGz--1" value="Иван" style="ellipse;whiteSpace=wrap;html=1;aspect=fixed;" vertex="1" parent="yxcw4a1VdJQ1mUFPhGz--3">
          <mxGeometry width="80.52631578947368" height="80.52631578947368" as="geometry" />
        </mxCell>
        <mxCell id="yxcw4a1VdJQ1mUFPhGz--2" value="1" style="ellipse;whiteSpace=wrap;html=1;aspect=fixed;" vertex="1" parent="yxcw4a1VdJQ1mUFPhGz--3">
          <mxGeometry x="29.325000000000003" width="24.963157894736845" height="24.963157894736845" as="geometry" />
        </mxCell>
        <mxCell id="yxcw4a1VdJQ1mUFPhGz--5" value="" style="group" connectable="0" vertex="1" parent="1">
          <mxGeometry x="68" y="74" width="85" height="87" as="geometry" />
        </mxCell>
        <mxCell id="yxcw4a1VdJQ1mUFPhGz--6" value="Мария" style="ellipse;whiteSpace=wrap;html=1;aspect=fixed;" vertex="1" parent="yxcw4a1VdJQ1mUFPhGz--5">
          <mxGeometry width="80.52631578947368" height="80.52631578947368" as="geometry" />
        </mxCell>
        <mxCell id="yxcw4a1VdJQ1mUFPhGz--7" value="2" style="ellipse;whiteSpace=wrap;html=1;aspect=fixed;" vertex="1" parent="yxcw4a1VdJQ1mUFPhGz--5">
          <mxGeometry x="29.325000000000003" width="24.963157894736845" height="24.963157894736845" as="geometry" />
        </mxCell>
        <mxCell id="yxcw4a1VdJQ1mUFPhGz--8" value="" style="group" connectable="0" vertex="1" parent="1">
          <mxGeometry x="158" y="74" width="85" height="87" as="geometry" />
        </mxCell>
        <mxCell id="yxcw4a1VdJQ1mUFPhGz--9" value="Петр" style="ellipse;whiteSpace=wrap;html=1;aspect=fixed;" vertex="1" parent="yxcw4a1VdJQ1mUFPhGz--8">
          <mxGeometry width="80.52631578947368" height="80.52631578947368" as="geometry" />
        </mxCell>
        <mxCell id="yxcw4a1VdJQ1mUFPhGz--10" value="3" style="ellipse;whiteSpace=wrap;html=1;aspect=fixed;" vertex="1" parent="yxcw4a1VdJQ1mUFPhGz--8">
          <mxGeometry x="29.325000000000003" width="24.963157894736845" height="24.963157894736845" as="geometry" />
        </mxCell>
        <mxCell id="yxcw4a1VdJQ1mUFPhGz--11" value="" style="group" connectable="0" vertex="1" parent="1">
          <mxGeometry x="249" y="74" width="85" height="87" as="geometry" />
        </mxCell>
        <mxCell id="yxcw4a1VdJQ1mUFPhGz--12" value="Елена" style="ellipse;whiteSpace=wrap;html=1;aspect=fixed;" vertex="1" parent="yxcw4a1VdJQ1mUFPhGz--11">
          <mxGeometry width="80.52631578947368" height="80.52631578947368" as="geometry" />
        </mxCell>
        <mxCell id="yxcw4a1VdJQ1mUFPhGz--13" value="4" style="ellipse;whiteSpace=wrap;html=1;aspect=fixed;" vertex="1" parent="yxcw4a1VdJQ1mUFPhGz--11">
          <mxGeometry x="29.325000000000003" width="24.963157894736845" height="24.963157894736845" as="geometry" />
        </mxCell>
        <mxCell id="yxcw4a1VdJQ1mUFPhGz--14" value="" style="group" connectable="0" vertex="1" parent="1">
          <mxGeometry x="336" y="74" width="85" height="87" as="geometry" />
        </mxCell>
        <mxCell id="yxcw4a1VdJQ1mUFPhGz--15" value="Алексей" style="ellipse;whiteSpace=wrap;html=1;aspect=fixed;" vertex="1" parent="yxcw4a1VdJQ1mUFPhGz--14">
          <mxGeometry width="80.52631578947368" height="80.52631578947368" as="geometry" />
        </mxCell>
        <mxCell id="yxcw4a1VdJQ1mUFPhGz--16" value="5" style="ellipse;whiteSpace=wrap;html=1;aspect=fixed;" vertex="1" parent="yxcw4a1VdJQ1mUFPhGz--14">
          <mxGeometry x="29.325000000000003" width="24.963157894736845" height="24.963157894736845" as="geometry" />
        </mxCell>
        <mxCell id="yxcw4a1VdJQ1mUFPhGz--17" value="" style="group" connectable="0" vertex="1" parent="1">
          <mxGeometry x="421" y="74" width="85" height="87" as="geometry" />
        </mxCell>
        <mxCell id="yxcw4a1VdJQ1mUFPhGz--18" value="Ольга" style="ellipse;whiteSpace=wrap;html=1;aspect=fixed;" vertex="1" parent="yxcw4a1VdJQ1mUFPhGz--17">
          <mxGeometry width="80.52631578947368" height="80.52631578947368" as="geometry" />
        </mxCell>
        <mxCell id="yxcw4a1VdJQ1mUFPhGz--19" value="6" style="ellipse;whiteSpace=wrap;html=1;aspect=fixed;" vertex="1" parent="yxcw4a1VdJQ1mUFPhGz--17">
          <mxGeometry x="29.325000000000003" width="24.963157894736845" height="24.963157894736845" as="geometry" />
        </mxCell>
        <mxCell id="yxcw4a1VdJQ1mUFPhGz--20" value="" style="group" connectable="0" vertex="1" parent="1">
          <mxGeometry x="-20" y="161" width="85" height="87" as="geometry" />
        </mxCell>
        <mxCell id="yxcw4a1VdJQ1mUFPhGz--21" value="Сергей" style="ellipse;whiteSpace=wrap;html=1;aspect=fixed;" vertex="1" parent="yxcw4a1VdJQ1mUFPhGz--20">
          <mxGeometry width="80.52631578947368" height="80.52631578947368" as="geometry" />
        </mxCell>
        <mxCell id="yxcw4a1VdJQ1mUFPhGz--22" value="7" style="ellipse;whiteSpace=wrap;html=1;aspect=fixed;" vertex="1" parent="yxcw4a1VdJQ1mUFPhGz--20">
          <mxGeometry x="29.325000000000003" width="24.963157894736845" height="24.963157894736845" as="geometry" />
        </mxCell>
        <mxCell id="yxcw4a1VdJQ1mUFPhGz--23" value="" style="group" connectable="0" vertex="1" parent="1">
          <mxGeometry x="65" y="161" width="85" height="87" as="geometry" />
        </mxCell>
        <mxCell id="yxcw4a1VdJQ1mUFPhGz--24" value="Анна" style="ellipse;whiteSpace=wrap;html=1;aspect=fixed;" vertex="1" parent="yxcw4a1VdJQ1mUFPhGz--23">
          <mxGeometry width="80.52631578947368" height="80.52631578947368" as="geometry" />
        </mxCell>
        <mxCell id="yxcw4a1VdJQ1mUFPhGz--25" value="8" style="ellipse;whiteSpace=wrap;html=1;aspect=fixed;" vertex="1" parent="yxcw4a1VdJQ1mUFPhGz--23">
          <mxGeometry x="29.325000000000003" width="24.963157894736845" height="24.963157894736845" as="geometry" />
        </mxCell>
        <mxCell id="yxcw4a1VdJQ1mUFPhGz--26" value="" style="group" connectable="0" vertex="1" parent="1">
          <mxGeometry x="158" y="159" width="85" height="87" as="geometry" />
        </mxCell>
        <mxCell id="yxcw4a1VdJQ1mUFPhGz--27" value="Дмитрий" style="ellipse;whiteSpace=wrap;html=1;aspect=fixed;" vertex="1" parent="yxcw4a1VdJQ1mUFPhGz--26">
          <mxGeometry width="80.52631578947368" height="80.52631578947368" as="geometry" />
        </mxCell>
        <mxCell id="yxcw4a1VdJQ1mUFPhGz--28" value="9" style="ellipse;whiteSpace=wrap;html=1;aspect=fixed;" vertex="1" parent="yxcw4a1VdJQ1mUFPhGz--26">
          <mxGeometry x="29.325000000000003" width="24.963157894736845" height="24.963157894736845" as="geometry" />
        </mxCell>
        <mxCell id="yxcw4a1VdJQ1mUFPhGz--29" value="" style="group" connectable="0" vertex="1" parent="1">
          <mxGeometry x="249" y="159" width="85" height="87" as="geometry" />
        </mxCell>
        <mxCell id="yxcw4a1VdJQ1mUFPhGz--30" value="Екатерина" style="ellipse;whiteSpace=wrap;html=1;aspect=fixed;" vertex="1" parent="yxcw4a1VdJQ1mUFPhGz--29">
          <mxGeometry width="80.52631578947368" height="80.52631578947368" as="geometry" />
        </mxCell>
        <mxCell id="yxcw4a1VdJQ1mUFPhGz--31" value="10" style="ellipse;whiteSpace=wrap;html=1;aspect=fixed;" vertex="1" parent="yxcw4a1VdJQ1mUFPhGz--29">
          <mxGeometry x="29.325000000000003" width="24.963157894736845" height="24.963157894736845" as="geometry" />
        </mxCell>
        <mxCell id="yxcw4a1VdJQ1mUFPhGz--32" value="" style="group" connectable="0" vertex="1" parent="1">
          <mxGeometry x="335" y="159" width="85" height="87" as="geometry" />
        </mxCell>
        <mxCell id="yxcw4a1VdJQ1mUFPhGz--33" value="Николай" style="ellipse;whiteSpace=wrap;html=1;aspect=fixed;" vertex="1" parent="yxcw4a1VdJQ1mUFPhGz--32">
          <mxGeometry width="80.52631578947368" height="80.52631578947368" as="geometry" />
        </mxCell>
        <mxCell id="yxcw4a1VdJQ1mUFPhGz--34" value="11" style="ellipse;whiteSpace=wrap;html=1;aspect=fixed;" vertex="1" parent="yxcw4a1VdJQ1mUFPhGz--32">
          <mxGeometry x="29.325000000000003" width="24.963157894736845" height="24.963157894736845" as="geometry" />
        </mxCell>
        <mxCell id="yxcw4a1VdJQ1mUFPhGz--35" value="" style="group" connectable="0" vertex="1" parent="1">
          <mxGeometry x="421" y="159" width="85" height="87" as="geometry" />
        </mxCell>
        <mxCell id="yxcw4a1VdJQ1mUFPhGz--36" value="Татьяна" style="ellipse;whiteSpace=wrap;html=1;aspect=fixed;" vertex="1" parent="yxcw4a1VdJQ1mUFPhGz--35">
          <mxGeometry width="80.52631578947368" height="80.52631578947368" as="geometry" />
        </mxCell>
        <mxCell id="yxcw4a1VdJQ1mUFPhGz--37" value="12" style="ellipse;whiteSpace=wrap;html=1;aspect=fixed;" vertex="1" parent="yxcw4a1VdJQ1mUFPhGz--35">
          <mxGeometry x="29.325000000000003" width="24.963157894736845" height="24.963157894736845" as="geometry" />
        </mxCell>
      </root>
    </mxGraphModel>
  </diagram>
  <diagram id="gRN-AAOo5yGC7UZIFWlj" name="Page-2">
    <mxGraphModel grid="0" page="0" gridSize="10" guides="1" tooltips="1" connect="1" arrows="1" fold="1" pageScale="1" pageWidth="850" pageHeight="1100" math="0" shadow="0">
      <root>
        <mxCell id="0" />
        <mxCell id="1" parent="0" />
        <mxCell id="G1t-p_TGIHzbDFNjSub9-4" value="" style="group" connectable="0" vertex="1" parent="1">
          <mxGeometry x="-185" y="11" width="120" height="60" as="geometry" />
        </mxCell>
        <mxCell id="G1t-p_TGIHzbDFNjSub9-1" value="&lt;div&gt;&lt;br&gt;&lt;/div&gt;&lt;div&gt;Москва&lt;/div&gt;" style="rounded=0;whiteSpace=wrap;html=1;" vertex="1" parent="G1t-p_TGIHzbDFNjSub9-4">
          <mxGeometry width="120" height="60" as="geometry" />
        </mxCell>
        <mxCell id="G1t-p_TGIHzbDFNjSub9-3" value="1" style="rounded=0;whiteSpace=wrap;html=1;" vertex="1" parent="G1t-p_TGIHzbDFNjSub9-4">
          <mxGeometry x="41" width="38" height="24" as="geometry" />
        </mxCell>
        <mxCell id="G1t-p_TGIHzbDFNjSub9-5" value="" style="group" connectable="0" vertex="1" parent="1">
          <mxGeometry x="-55" y="11" width="120" height="60" as="geometry" />
        </mxCell>
        <mxCell id="G1t-p_TGIHzbDFNjSub9-6" value="&lt;div&gt;&lt;br&gt;&lt;/div&gt;&lt;div&gt;Санкт-Петербург&lt;/div&gt;" style="rounded=0;whiteSpace=wrap;html=1;" vertex="1" parent="G1t-p_TGIHzbDFNjSub9-5">
          <mxGeometry width="120" height="60" as="geometry" />
        </mxCell>
        <mxCell id="G1t-p_TGIHzbDFNjSub9-7" value="2" style="rounded=0;whiteSpace=wrap;html=1;" vertex="1" parent="G1t-p_TGIHzbDFNjSub9-5">
          <mxGeometry x="41" width="38" height="24" as="geometry" />
        </mxCell>
        <mxCell id="G1t-p_TGIHzbDFNjSub9-8" value="" style="group" connectable="0" vertex="1" parent="1">
          <mxGeometry x="75" y="11" width="120" height="60" as="geometry" />
        </mxCell>
        <mxCell id="G1t-p_TGIHzbDFNjSub9-9" value="&lt;br&gt;Новосибирск" style="rounded=0;whiteSpace=wrap;html=1;" vertex="1" parent="G1t-p_TGIHzbDFNjSub9-8">
          <mxGeometry width="120" height="60" as="geometry" />
        </mxCell>
        <mxCell id="G1t-p_TGIHzbDFNjSub9-10" value="3" style="rounded=0;whiteSpace=wrap;html=1;" vertex="1" parent="G1t-p_TGIHzbDFNjSub9-8">
          <mxGeometry x="41" width="38" height="24" as="geometry" />
        </mxCell>
        <mxCell id="G1t-p_TGIHzbDFNjSub9-11" value="" style="group" connectable="0" vertex="1" parent="1">
          <mxGeometry x="205" y="11" width="120" height="60" as="geometry" />
        </mxCell>
        <mxCell id="G1t-p_TGIHzbDFNjSub9-12" value="&lt;br&gt;Екатеринбург" style="rounded=0;whiteSpace=wrap;html=1;" vertex="1" parent="G1t-p_TGIHzbDFNjSub9-11">
          <mxGeometry width="120" height="60" as="geometry" />
        </mxCell>
        <mxCell id="G1t-p_TGIHzbDFNjSub9-13" value="4" style="rounded=0;whiteSpace=wrap;html=1;" vertex="1" parent="G1t-p_TGIHzbDFNjSub9-11">
          <mxGeometry x="41" width="38" height="24" as="geometry" />
        </mxCell>
        <mxCell id="G1t-p_TGIHzbDFNjSub9-14" value="" style="group" connectable="0" vertex="1" parent="1">
          <mxGeometry x="337" y="11" width="120" height="60" as="geometry" />
        </mxCell>
        <mxCell id="G1t-p_TGIHzbDFNjSub9-15" value="&lt;br&gt;Казань" style="rounded=0;whiteSpace=wrap;html=1;" vertex="1" parent="G1t-p_TGIHzbDFNjSub9-14">
          <mxGeometry width="120" height="60" as="geometry" />
        </mxCell>
        <mxCell id="G1t-p_TGIHzbDFNjSub9-16" value="5" style="rounded=0;whiteSpace=wrap;html=1;" vertex="1" parent="G1t-p_TGIHzbDFNjSub9-14">
          <mxGeometry x="41" width="38" height="24" as="geometry" />
        </mxCell>
        <mxCell id="G1t-p_TGIHzbDFNjSub9-17" value="" style="group" connectable="0" vertex="1" parent="1">
          <mxGeometry x="-184" y="82" width="120" height="60" as="geometry" />
        </mxCell>
        <mxCell id="G1t-p_TGIHzbDFNjSub9-18" value="&lt;br&gt;Нижний Новгород" style="rounded=0;whiteSpace=wrap;html=1;" vertex="1" parent="G1t-p_TGIHzbDFNjSub9-17">
          <mxGeometry width="120" height="60" as="geometry" />
        </mxCell>
        <mxCell id="G1t-p_TGIHzbDFNjSub9-19" value="6" style="rounded=0;whiteSpace=wrap;html=1;" vertex="1" parent="G1t-p_TGIHzbDFNjSub9-17">
          <mxGeometry x="41" width="38" height="24" as="geometry" />
        </mxCell>
        <mxCell id="G1t-p_TGIHzbDFNjSub9-20" value="" style="group" connectable="0" vertex="1" parent="1">
          <mxGeometry x="-55" y="82" width="120" height="60" as="geometry" />
        </mxCell>
        <mxCell id="G1t-p_TGIHzbDFNjSub9-21" value="&lt;br&gt;Самара" style="rounded=0;whiteSpace=wrap;html=1;" vertex="1" parent="G1t-p_TGIHzbDFNjSub9-20">
          <mxGeometry width="120" height="60" as="geometry" />
        </mxCell>
        <mxCell id="G1t-p_TGIHzbDFNjSub9-22" value="7" style="rounded=0;whiteSpace=wrap;html=1;" vertex="1" parent="G1t-p_TGIHzbDFNjSub9-20">
          <mxGeometry x="41" width="38" height="24" as="geometry" />
        </mxCell>
        <mxCell id="G1t-p_TGIHzbDFNjSub9-25" value="" style="group" connectable="0" vertex="1" parent="1">
          <mxGeometry x="74" y="83" width="120" height="60" as="geometry" />
        </mxCell>
        <mxCell id="G1t-p_TGIHzbDFNjSub9-26" value="&lt;br&gt;Омск" style="rounded=0;whiteSpace=wrap;html=1;" vertex="1" parent="G1t-p_TGIHzbDFNjSub9-25">
          <mxGeometry width="120" height="60" as="geometry" />
        </mxCell>
        <mxCell id="G1t-p_TGIHzbDFNjSub9-27" value="8" style="rounded=0;whiteSpace=wrap;html=1;" vertex="1" parent="G1t-p_TGIHzbDFNjSub9-25">
          <mxGeometry x="41" width="38" height="24" as="geometry" />
        </mxCell>
        <mxCell id="G1t-p_TGIHzbDFNjSub9-28" value="" style="group" connectable="0" vertex="1" parent="1">
          <mxGeometry x="205" y="82" width="120" height="60" as="geometry" />
        </mxCell>
        <mxCell id="G1t-p_TGIHzbDFNjSub9-29" value="&lt;br&gt;Челябинск" style="rounded=0;whiteSpace=wrap;html=1;" vertex="1" parent="G1t-p_TGIHzbDFNjSub9-28">
          <mxGeometry width="120" height="60" as="geometry" />
        </mxCell>
        <mxCell id="G1t-p_TGIHzbDFNjSub9-30" value="9" style="rounded=0;whiteSpace=wrap;html=1;" vertex="1" parent="G1t-p_TGIHzbDFNjSub9-28">
          <mxGeometry x="41" width="38" height="24" as="geometry" />
        </mxCell>
        <mxCell id="G1t-p_TGIHzbDFNjSub9-31" value="" style="group" connectable="0" vertex="1" parent="1">
          <mxGeometry x="337" y="83" width="120" height="60" as="geometry" />
        </mxCell>
        <mxCell id="G1t-p_TGIHzbDFNjSub9-32" value="&lt;br&gt;Ростов-на-Дону" style="rounded=0;whiteSpace=wrap;html=1;" vertex="1" parent="G1t-p_TGIHzbDFNjSub9-31">
          <mxGeometry width="120" height="60" as="geometry" />
        </mxCell>
        <mxCell id="G1t-p_TGIHzbDFNjSub9-33" value="10" style="rounded=0;whiteSpace=wrap;html=1;" vertex="1" parent="G1t-p_TGIHzbDFNjSub9-31">
          <mxGeometry x="41" width="38" height="24" as="geometry" />
        </mxCell>
      </root>
    </mxGraphModel>
  </diagram>
  <diagram id="VvXRfgzaIfqREyGhdT1r" name="Page-3">
    <mxGraphModel grid="0" page="0" gridSize="10" guides="1" tooltips="1" connect="1" arrows="1" fold="1" pageScale="1" pageWidth="850" pageHeight="1100" math="0" shadow="0">
      <root>
        <mxCell id="0" />
        <mxCell id="1" parent="0" />
        <mxCell id="LcZITRZ4CPiRe5WTys6N-4" value="" style="group" connectable="0" vertex="1" parent="1">
          <mxGeometry x="-43" y="114" width="120" height="80" as="geometry" />
        </mxCell>
        <mxCell id="LcZITRZ4CPiRe5WTys6N-2" value="Чтение" style="shape=hexagon;perimeter=hexagonPerimeter2;whiteSpace=wrap;html=1;fixedSize=1;" vertex="1" parent="LcZITRZ4CPiRe5WTys6N-4">
          <mxGeometry width="120" height="80" as="geometry" />
        </mxCell>
        <mxCell id="LcZITRZ4CPiRe5WTys6N-3" value="1" style="shape=hexagon;perimeter=hexagonPerimeter2;whiteSpace=wrap;html=1;fixedSize=1;size=7.566680908203125;" vertex="1" parent="LcZITRZ4CPiRe5WTys6N-4">
          <mxGeometry x="47" width="26" height="20" as="geometry" />
        </mxCell>
        <mxCell id="LcZITRZ4CPiRe5WTys6N-8" value="" style="group" connectable="0" vertex="1" parent="1">
          <mxGeometry x="84" y="114" width="120" height="80" as="geometry" />
        </mxCell>
        <mxCell id="LcZITRZ4CPiRe5WTys6N-9" value="Спорт" style="shape=hexagon;perimeter=hexagonPerimeter2;whiteSpace=wrap;html=1;fixedSize=1;" vertex="1" parent="LcZITRZ4CPiRe5WTys6N-8">
          <mxGeometry x="3" width="120" height="80" as="geometry" />
        </mxCell>
        <mxCell id="LcZITRZ4CPiRe5WTys6N-10" value="2" style="shape=hexagon;perimeter=hexagonPerimeter2;whiteSpace=wrap;html=1;fixedSize=1;size=7.566680908203125;" vertex="1" parent="LcZITRZ4CPiRe5WTys6N-8">
          <mxGeometry x="47" width="26" height="20" as="geometry" />
        </mxCell>
        <mxCell id="LcZITRZ4CPiRe5WTys6N-11" value="" style="group" connectable="0" vertex="1" parent="1">
          <mxGeometry x="217" y="114" width="120" height="80" as="geometry" />
        </mxCell>
        <mxCell id="LcZITRZ4CPiRe5WTys6N-12" value="Музыка" style="shape=hexagon;perimeter=hexagonPerimeter2;whiteSpace=wrap;html=1;fixedSize=1;" vertex="1" parent="LcZITRZ4CPiRe5WTys6N-11">
          <mxGeometry width="120" height="80" as="geometry" />
        </mxCell>
        <mxCell id="LcZITRZ4CPiRe5WTys6N-13" value="3" style="shape=hexagon;perimeter=hexagonPerimeter2;whiteSpace=wrap;html=1;fixedSize=1;size=7.566680908203125;" vertex="1" parent="LcZITRZ4CPiRe5WTys6N-11">
          <mxGeometry x="47" width="26" height="20" as="geometry" />
        </mxCell>
        <mxCell id="LcZITRZ4CPiRe5WTys6N-14" value="" style="group" connectable="0" vertex="1" parent="1">
          <mxGeometry x="346" y="114" width="120" height="80" as="geometry" />
        </mxCell>
        <mxCell id="LcZITRZ4CPiRe5WTys6N-15" value="Путешествия" style="shape=hexagon;perimeter=hexagonPerimeter2;whiteSpace=wrap;html=1;fixedSize=1;" vertex="1" parent="LcZITRZ4CPiRe5WTys6N-14">
          <mxGeometry width="120" height="80" as="geometry" />
        </mxCell>
        <mxCell id="LcZITRZ4CPiRe5WTys6N-16" value="4" style="shape=hexagon;perimeter=hexagonPerimeter2;whiteSpace=wrap;html=1;fixedSize=1;size=6.809500558035836;" vertex="1" parent="LcZITRZ4CPiRe5WTys6N-14">
          <mxGeometry x="47" width="26" height="20" as="geometry" />
        </mxCell>
        <mxCell id="LcZITRZ4CPiRe5WTys6N-17" value="" style="group" connectable="0" vertex="1" parent="1">
          <mxGeometry x="472" y="114" width="120" height="80" as="geometry" />
        </mxCell>
        <mxCell id="LcZITRZ4CPiRe5WTys6N-18" value="Программирование" style="shape=hexagon;perimeter=hexagonPerimeter2;whiteSpace=wrap;html=1;fixedSize=1;" vertex="1" parent="LcZITRZ4CPiRe5WTys6N-17">
          <mxGeometry x="2" width="120" height="80" as="geometry" />
        </mxCell>
        <mxCell id="LcZITRZ4CPiRe5WTys6N-19" value="5" style="shape=hexagon;perimeter=hexagonPerimeter2;whiteSpace=wrap;html=1;fixedSize=1;size=7.566680908203125;" vertex="1" parent="LcZITRZ4CPiRe5WTys6N-17">
          <mxGeometry x="47" width="26" height="20" as="geometry" />
        </mxCell>
        <mxCell id="LcZITRZ4CPiRe5WTys6N-20" value="" style="group" connectable="0" vertex="1" parent="1">
          <mxGeometry x="-43" y="202" width="120" height="80" as="geometry" />
        </mxCell>
        <mxCell id="LcZITRZ4CPiRe5WTys6N-21" value="Готовка" style="shape=hexagon;perimeter=hexagonPerimeter2;whiteSpace=wrap;html=1;fixedSize=1;" vertex="1" parent="LcZITRZ4CPiRe5WTys6N-20">
          <mxGeometry width="120" height="80" as="geometry" />
        </mxCell>
        <mxCell id="LcZITRZ4CPiRe5WTys6N-22" value="6" style="shape=hexagon;perimeter=hexagonPerimeter2;whiteSpace=wrap;html=1;fixedSize=1;size=7.566680908203125;" vertex="1" parent="LcZITRZ4CPiRe5WTys6N-20">
          <mxGeometry x="47" width="26" height="20" as="geometry" />
        </mxCell>
        <mxCell id="LcZITRZ4CPiRe5WTys6N-23" value="" style="group" connectable="0" vertex="1" parent="1">
          <mxGeometry x="84" y="202" width="120" height="80" as="geometry" />
        </mxCell>
        <mxCell id="LcZITRZ4CPiRe5WTys6N-24" value="Искусство" style="shape=hexagon;perimeter=hexagonPerimeter2;whiteSpace=wrap;html=1;fixedSize=1;" vertex="1" parent="LcZITRZ4CPiRe5WTys6N-23">
          <mxGeometry x="3" width="120" height="80" as="geometry" />
        </mxCell>
        <mxCell id="LcZITRZ4CPiRe5WTys6N-25" value="7" style="shape=hexagon;perimeter=hexagonPerimeter2;whiteSpace=wrap;html=1;fixedSize=1;size=7.566680908203125;" vertex="1" parent="LcZITRZ4CPiRe5WTys6N-23">
          <mxGeometry x="47" width="26" height="20" as="geometry" />
        </mxCell>
        <mxCell id="LcZITRZ4CPiRe5WTys6N-26" value="" style="group" connectable="0" vertex="1" parent="1">
          <mxGeometry x="217" y="202" width="120" height="80" as="geometry" />
        </mxCell>
        <mxCell id="LcZITRZ4CPiRe5WTys6N-27" value="Фотография" style="shape=hexagon;perimeter=hexagonPerimeter2;whiteSpace=wrap;html=1;fixedSize=1;" vertex="1" parent="LcZITRZ4CPiRe5WTys6N-26">
          <mxGeometry width="120" height="80" as="geometry" />
        </mxCell>
        <mxCell id="LcZITRZ4CPiRe5WTys6N-28" value="8" style="shape=hexagon;perimeter=hexagonPerimeter2;whiteSpace=wrap;html=1;fixedSize=1;size=7.566680908203125;" vertex="1" parent="LcZITRZ4CPiRe5WTys6N-26">
          <mxGeometry x="47" width="26" height="20" as="geometry" />
        </mxCell>
        <mxCell id="LcZITRZ4CPiRe5WTys6N-29" value="" style="group" connectable="0" vertex="1" parent="1">
          <mxGeometry x="346" y="202" width="120" height="80" as="geometry" />
        </mxCell>
        <mxCell id="LcZITRZ4CPiRe5WTys6N-30" value="История" style="shape=hexagon;perimeter=hexagonPerimeter2;whiteSpace=wrap;html=1;fixedSize=1;" vertex="1" parent="LcZITRZ4CPiRe5WTys6N-29">
          <mxGeometry width="120" height="80" as="geometry" />
        </mxCell>
        <mxCell id="LcZITRZ4CPiRe5WTys6N-31" value="9" style="shape=hexagon;perimeter=hexagonPerimeter2;whiteSpace=wrap;html=1;fixedSize=1;size=6.809500558035836;" vertex="1" parent="LcZITRZ4CPiRe5WTys6N-29">
          <mxGeometry x="47" width="26" height="20" as="geometry" />
        </mxCell>
        <mxCell id="LcZITRZ4CPiRe5WTys6N-32" value="" style="group" connectable="0" vertex="1" parent="1">
          <mxGeometry x="472" y="202" width="120" height="80" as="geometry" />
        </mxCell>
        <mxCell id="LcZITRZ4CPiRe5WTys6N-33" value="Наука" style="shape=hexagon;perimeter=hexagonPerimeter2;whiteSpace=wrap;html=1;fixedSize=1;" vertex="1" parent="LcZITRZ4CPiRe5WTys6N-32">
          <mxGeometry x="2" width="120" height="80" as="geometry" />
        </mxCell>
        <mxCell id="LcZITRZ4CPiRe5WTys6N-34" value="10" style="shape=hexagon;perimeter=hexagonPerimeter2;whiteSpace=wrap;html=1;fixedSize=1;size=7.566680908203125;" vertex="1" parent="LcZITRZ4CPiRe5WTys6N-32">
          <mxGeometry x="47" width="26" height="20" as="geometry" />
        </mxCell>
      </root>
    </mxGraphModel>
  </diagram>
  <diagram id="SrqwEIhuRUIUFENiwtJY" name="Page-4">
    <mxGraphModel grid="0" page="0" gridSize="10" guides="1" tooltips="1" connect="1" arrows="1" fold="1" pageScale="1" pageWidth="850" pageHeight="1100" math="0" shadow="0">
      <root>
        <mxCell id="0" />
        <mxCell id="1" parent="0" />
        <mxCell id="9aZO0Hwe2t4U4SfMm30W-1" value="" style="group" connectable="0" vertex="1" parent="1">
          <mxGeometry x="665" y="376" width="85" height="87" as="geometry" />
        </mxCell>
        <mxCell id="9aZO0Hwe2t4U4SfMm30W-2" value="Иван" style="ellipse;whiteSpace=wrap;html=1;aspect=fixed;" vertex="1" parent="9aZO0Hwe2t4U4SfMm30W-1">
          <mxGeometry width="80.52631578947368" height="80.52631578947368" as="geometry" />
        </mxCell>
        <mxCell id="9aZO0Hwe2t4U4SfMm30W-3" value="1" style="ellipse;whiteSpace=wrap;html=1;aspect=fixed;" vertex="1" parent="9aZO0Hwe2t4U4SfMm30W-1">
          <mxGeometry x="29.325000000000003" width="24.963157894736845" height="24.963157894736845" as="geometry" />
        </mxCell>
        <mxCell id="9aZO0Hwe2t4U4SfMm30W-4" value="" style="group" connectable="0" vertex="1" parent="1">
          <mxGeometry x="665" y="180" width="85" height="87" as="geometry" />
        </mxCell>
        <mxCell id="9aZO0Hwe2t4U4SfMm30W-5" value="Мария" style="ellipse;whiteSpace=wrap;html=1;aspect=fixed;" vertex="1" parent="9aZO0Hwe2t4U4SfMm30W-4">
          <mxGeometry width="80.52631578947368" height="80.52631578947368" as="geometry" />
        </mxCell>
        <mxCell id="9aZO0Hwe2t4U4SfMm30W-6" value="2" style="ellipse;whiteSpace=wrap;html=1;aspect=fixed;" vertex="1" parent="9aZO0Hwe2t4U4SfMm30W-4">
          <mxGeometry x="29.325000000000003" width="24.963157894736845" height="24.963157894736845" as="geometry" />
        </mxCell>
        <mxCell id="9aZO0Hwe2t4U4SfMm30W-7" value="" style="group" connectable="0" vertex="1" parent="1">
          <mxGeometry x="468" y="376" width="85" height="87" as="geometry" />
        </mxCell>
        <mxCell id="9aZO0Hwe2t4U4SfMm30W-8" value="Петр" style="ellipse;whiteSpace=wrap;html=1;aspect=fixed;" vertex="1" parent="9aZO0Hwe2t4U4SfMm30W-7">
          <mxGeometry width="80.52631578947368" height="80.52631578947368" as="geometry" />
        </mxCell>
        <mxCell id="9aZO0Hwe2t4U4SfMm30W-9" value="3" style="ellipse;whiteSpace=wrap;html=1;aspect=fixed;" vertex="1" parent="9aZO0Hwe2t4U4SfMm30W-7">
          <mxGeometry x="29.325000000000003" width="24.963157894736845" height="24.963157894736845" as="geometry" />
        </mxCell>
        <mxCell id="9aZO0Hwe2t4U4SfMm30W-10" value="" style="group" connectable="0" vertex="1" parent="1">
          <mxGeometry x="846" y="180" width="85" height="87" as="geometry" />
        </mxCell>
        <mxCell id="9aZO0Hwe2t4U4SfMm30W-11" value="Елена" style="ellipse;whiteSpace=wrap;html=1;aspect=fixed;" vertex="1" parent="9aZO0Hwe2t4U4SfMm30W-10">
          <mxGeometry width="80.52631578947368" height="80.52631578947368" as="geometry" />
        </mxCell>
        <mxCell id="9aZO0Hwe2t4U4SfMm30W-12" value="4" style="ellipse;whiteSpace=wrap;html=1;aspect=fixed;" vertex="1" parent="9aZO0Hwe2t4U4SfMm30W-10">
          <mxGeometry x="29.325000000000003" width="24.963157894736845" height="24.963157894736845" as="geometry" />
        </mxCell>
        <mxCell id="9aZO0Hwe2t4U4SfMm30W-13" value="" style="group" connectable="0" vertex="1" parent="1">
          <mxGeometry x="846" y="315" width="85" height="87" as="geometry" />
        </mxCell>
        <mxCell id="9aZO0Hwe2t4U4SfMm30W-14" value="Алексей" style="ellipse;whiteSpace=wrap;html=1;aspect=fixed;" vertex="1" parent="9aZO0Hwe2t4U4SfMm30W-13">
          <mxGeometry width="80.52631578947368" height="80.52631578947368" as="geometry" />
        </mxCell>
        <mxCell id="9aZO0Hwe2t4U4SfMm30W-15" value="5" style="ellipse;whiteSpace=wrap;html=1;aspect=fixed;" vertex="1" parent="9aZO0Hwe2t4U4SfMm30W-13">
          <mxGeometry x="29.325000000000003" width="24.963157894736845" height="24.963157894736845" as="geometry" />
        </mxCell>
        <mxCell id="9aZO0Hwe2t4U4SfMm30W-16" value="" style="group" connectable="0" vertex="1" parent="1">
          <mxGeometry x="846" y="60" width="85" height="87" as="geometry" />
        </mxCell>
        <mxCell id="9aZO0Hwe2t4U4SfMm30W-17" value="Ольга" style="ellipse;whiteSpace=wrap;html=1;aspect=fixed;" vertex="1" parent="9aZO0Hwe2t4U4SfMm30W-16">
          <mxGeometry width="80.52631578947368" height="80.52631578947368" as="geometry" />
        </mxCell>
        <mxCell id="9aZO0Hwe2t4U4SfMm30W-18" value="6" style="ellipse;whiteSpace=wrap;html=1;aspect=fixed;" vertex="1" parent="9aZO0Hwe2t4U4SfMm30W-16">
          <mxGeometry x="29.325000000000003" width="24.963157894736845" height="24.963157894736845" as="geometry" />
        </mxCell>
        <mxCell id="9aZO0Hwe2t4U4SfMm30W-19" value="" style="group" connectable="0" vertex="1" parent="1">
          <mxGeometry x="468" y="549" width="85" height="87" as="geometry" />
        </mxCell>
        <mxCell id="9aZO0Hwe2t4U4SfMm30W-20" value="Сергей" style="ellipse;whiteSpace=wrap;html=1;aspect=fixed;" vertex="1" parent="9aZO0Hwe2t4U4SfMm30W-19">
          <mxGeometry width="80.52631578947368" height="80.52631578947368" as="geometry" />
        </mxCell>
        <mxCell id="9aZO0Hwe2t4U4SfMm30W-21" value="7" style="ellipse;whiteSpace=wrap;html=1;aspect=fixed;" vertex="1" parent="9aZO0Hwe2t4U4SfMm30W-19">
          <mxGeometry x="29.325000000000003" width="24.963157894736845" height="24.963157894736845" as="geometry" />
        </mxCell>
        <mxCell id="9aZO0Hwe2t4U4SfMm30W-22" value="" style="group" connectable="0" vertex="1" parent="1">
          <mxGeometry x="665" y="549" width="85" height="87" as="geometry" />
        </mxCell>
        <mxCell id="9aZO0Hwe2t4U4SfMm30W-23" value="Анна" style="ellipse;whiteSpace=wrap;html=1;aspect=fixed;" vertex="1" parent="9aZO0Hwe2t4U4SfMm30W-22">
          <mxGeometry width="80.52631578947368" height="80.52631578947368" as="geometry" />
        </mxCell>
        <mxCell id="9aZO0Hwe2t4U4SfMm30W-24" value="8" style="ellipse;whiteSpace=wrap;html=1;aspect=fixed;" vertex="1" parent="9aZO0Hwe2t4U4SfMm30W-22">
          <mxGeometry x="29.325000000000003" width="24.963157894736845" height="24.963157894736845" as="geometry" />
        </mxCell>
        <mxCell id="9aZO0Hwe2t4U4SfMm30W-25" value="" style="group" connectable="0" vertex="1" parent="1">
          <mxGeometry x="846" y="463" width="85" height="87" as="geometry" />
        </mxCell>
        <mxCell id="9aZO0Hwe2t4U4SfMm30W-26" value="Дмитрий" style="ellipse;whiteSpace=wrap;html=1;aspect=fixed;" vertex="1" parent="9aZO0Hwe2t4U4SfMm30W-25">
          <mxGeometry width="80.52631578947368" height="80.52631578947368" as="geometry" />
        </mxCell>
        <mxCell id="9aZO0Hwe2t4U4SfMm30W-27" value="9" style="ellipse;whiteSpace=wrap;html=1;aspect=fixed;" vertex="1" parent="9aZO0Hwe2t4U4SfMm30W-25">
          <mxGeometry x="29.325000000000003" width="24.963157894736845" height="24.963157894736845" as="geometry" />
        </mxCell>
        <mxCell id="9aZO0Hwe2t4U4SfMm30W-28" value="" style="group" connectable="0" vertex="1" parent="1">
          <mxGeometry x="662" y="673" width="85" height="87" as="geometry" />
        </mxCell>
        <mxCell id="9aZO0Hwe2t4U4SfMm30W-29" value="Екатерина" style="ellipse;whiteSpace=wrap;html=1;aspect=fixed;" vertex="1" parent="9aZO0Hwe2t4U4SfMm30W-28">
          <mxGeometry width="80.52631578947368" height="80.52631578947368" as="geometry" />
        </mxCell>
        <mxCell id="9aZO0Hwe2t4U4SfMm30W-30" value="10" style="ellipse;whiteSpace=wrap;html=1;aspect=fixed;" vertex="1" parent="9aZO0Hwe2t4U4SfMm30W-28">
          <mxGeometry x="29.325000000000003" width="24.963157894736845" height="24.963157894736845" as="geometry" />
        </mxCell>
        <mxCell id="9aZO0Hwe2t4U4SfMm30W-31" value="" style="group" connectable="0" vertex="1" parent="1">
          <mxGeometry x="665" y="60" width="85" height="87" as="geometry" />
        </mxCell>
        <mxCell id="9aZO0Hwe2t4U4SfMm30W-32" value="Николай" style="ellipse;whiteSpace=wrap;html=1;aspect=fixed;" vertex="1" parent="9aZO0Hwe2t4U4SfMm30W-31">
          <mxGeometry width="80.52631578947368" height="80.52631578947368" as="geometry" />
        </mxCell>
        <mxCell id="9aZO0Hwe2t4U4SfMm30W-33" value="11" style="ellipse;whiteSpace=wrap;html=1;aspect=fixed;" vertex="1" parent="9aZO0Hwe2t4U4SfMm30W-31">
          <mxGeometry x="29.325000000000003" width="24.963157894736845" height="24.963157894736845" as="geometry" />
        </mxCell>
        <mxCell id="9aZO0Hwe2t4U4SfMm30W-34" value="" style="group" connectable="0" vertex="1" parent="1">
          <mxGeometry x="965" y="596" width="85" height="87" as="geometry" />
        </mxCell>
        <mxCell id="9aZO0Hwe2t4U4SfMm30W-35" value="Татьяна" style="ellipse;whiteSpace=wrap;html=1;aspect=fixed;" vertex="1" parent="9aZO0Hwe2t4U4SfMm30W-34">
          <mxGeometry width="80.52631578947368" height="80.52631578947368" as="geometry" />
        </mxCell>
        <mxCell id="9aZO0Hwe2t4U4SfMm30W-36" value="12" style="ellipse;whiteSpace=wrap;html=1;aspect=fixed;" vertex="1" parent="9aZO0Hwe2t4U4SfMm30W-34">
          <mxGeometry x="29.325000000000003" width="24.963157894736845" height="24.963157894736845" as="geometry" />
        </mxCell>
        <mxCell id="9aZO0Hwe2t4U4SfMm30W-37" style="edgeStyle=none;curved=1;rounded=0;orthogonalLoop=1;jettySize=auto;html=1;exitX=0.5;exitY=0;exitDx=0;exitDy=0;fontSize=12;startSize=8;endSize=8;" edge="1" parent="1" source="9aZO0Hwe2t4U4SfMm30W-3" target="9aZO0Hwe2t4U4SfMm30W-5">
          <mxGeometry relative="1" as="geometry" />
        </mxCell>
        <mxCell id="9aZO0Hwe2t4U4SfMm30W-38" style="edgeStyle=none;curved=1;rounded=0;orthogonalLoop=1;jettySize=auto;html=1;exitX=0;exitY=0.5;exitDx=0;exitDy=0;entryX=1;entryY=0.5;entryDx=0;entryDy=0;fontSize=12;startSize=8;endSize=8;" edge="1" parent="1" source="9aZO0Hwe2t4U4SfMm30W-2" target="9aZO0Hwe2t4U4SfMm30W-8">
          <mxGeometry relative="1" as="geometry" />
        </mxCell>
        <mxCell id="9aZO0Hwe2t4U4SfMm30W-39" style="edgeStyle=none;curved=1;rounded=0;orthogonalLoop=1;jettySize=auto;html=1;exitX=1;exitY=0.5;exitDx=0;exitDy=0;fontSize=12;startSize=8;endSize=8;" edge="1" parent="1" source="9aZO0Hwe2t4U4SfMm30W-5" target="9aZO0Hwe2t4U4SfMm30W-11">
          <mxGeometry relative="1" as="geometry" />
        </mxCell>
        <mxCell id="9aZO0Hwe2t4U4SfMm30W-40" style="edgeStyle=none;curved=1;rounded=0;orthogonalLoop=1;jettySize=auto;html=1;exitX=1;exitY=1;exitDx=0;exitDy=0;entryX=0;entryY=0;entryDx=0;entryDy=0;fontSize=12;startSize=8;endSize=8;" edge="1" parent="1" source="9aZO0Hwe2t4U4SfMm30W-5" target="9aZO0Hwe2t4U4SfMm30W-14">
          <mxGeometry relative="1" as="geometry" />
        </mxCell>
        <mxCell id="9aZO0Hwe2t4U4SfMm30W-41" style="edgeStyle=none;curved=1;rounded=0;orthogonalLoop=1;jettySize=auto;html=1;exitX=0.5;exitY=1;exitDx=0;exitDy=0;fontSize=12;startSize=8;endSize=8;" edge="1" parent="1" source="9aZO0Hwe2t4U4SfMm30W-8" target="9aZO0Hwe2t4U4SfMm30W-20">
          <mxGeometry relative="1" as="geometry" />
        </mxCell>
        <mxCell id="9aZO0Hwe2t4U4SfMm30W-42" style="edgeStyle=none;curved=1;rounded=0;orthogonalLoop=1;jettySize=auto;html=1;exitX=1;exitY=1;exitDx=0;exitDy=0;entryX=0;entryY=0;entryDx=0;entryDy=0;fontSize=12;startSize=8;endSize=8;" edge="1" parent="1" source="9aZO0Hwe2t4U4SfMm30W-8" target="9aZO0Hwe2t4U4SfMm30W-23">
          <mxGeometry relative="1" as="geometry" />
        </mxCell>
        <mxCell id="9aZO0Hwe2t4U4SfMm30W-43" style="edgeStyle=none;curved=1;rounded=0;orthogonalLoop=1;jettySize=auto;html=1;exitX=0.5;exitY=1;exitDx=0;exitDy=0;entryX=0.5;entryY=0;entryDx=0;entryDy=0;fontSize=12;startSize=8;endSize=8;" edge="1" parent="1" source="9aZO0Hwe2t4U4SfMm30W-14" target="9aZO0Hwe2t4U4SfMm30W-27">
          <mxGeometry relative="1" as="geometry" />
        </mxCell>
        <mxCell id="9aZO0Hwe2t4U4SfMm30W-45" style="edgeStyle=none;curved=1;rounded=0;orthogonalLoop=1;jettySize=auto;html=1;exitX=0.5;exitY=0;exitDx=0;exitDy=0;entryX=0.5;entryY=1;entryDx=0;entryDy=0;fontSize=12;startSize=8;endSize=8;" edge="1" parent="1" source="9aZO0Hwe2t4U4SfMm30W-12" target="9aZO0Hwe2t4U4SfMm30W-17">
          <mxGeometry relative="1" as="geometry" />
        </mxCell>
        <mxCell id="9aZO0Hwe2t4U4SfMm30W-46" style="edgeStyle=none;curved=1;rounded=0;orthogonalLoop=1;jettySize=auto;html=1;exitX=0;exitY=0.5;exitDx=0;exitDy=0;entryX=1;entryY=0.5;entryDx=0;entryDy=0;fontSize=12;startSize=8;endSize=8;" edge="1" parent="1" source="9aZO0Hwe2t4U4SfMm30W-17" target="9aZO0Hwe2t4U4SfMm30W-32">
          <mxGeometry relative="1" as="geometry" />
        </mxCell>
        <mxCell id="9aZO0Hwe2t4U4SfMm30W-47" style="edgeStyle=none;curved=1;rounded=0;orthogonalLoop=1;jettySize=auto;html=1;exitX=1;exitY=1;exitDx=0;exitDy=0;entryX=0;entryY=0;entryDx=0;entryDy=0;fontSize=12;startSize=8;endSize=8;" edge="1" parent="1" source="9aZO0Hwe2t4U4SfMm30W-26" target="9aZO0Hwe2t4U4SfMm30W-35">
          <mxGeometry relative="1" as="geometry" />
        </mxCell>
        <mxCell id="9aZO0Hwe2t4U4SfMm30W-48" style="edgeStyle=none;curved=1;rounded=0;orthogonalLoop=1;jettySize=auto;html=1;exitX=1;exitY=1;exitDx=0;exitDy=0;entryX=0;entryY=0.5;entryDx=0;entryDy=0;fontSize=12;startSize=8;endSize=8;" edge="1" parent="1" source="9aZO0Hwe2t4U4SfMm30W-20" target="9aZO0Hwe2t4U4SfMm30W-29">
          <mxGeometry relative="1" as="geometry" />
        </mxCell>
        <mxCell id="9aZO0Hwe2t4U4SfMm30W-49" style="edgeStyle=none;curved=1;rounded=0;orthogonalLoop=1;jettySize=auto;html=1;exitX=1;exitY=0.5;exitDx=0;exitDy=0;entryX=0;entryY=0.5;entryDx=0;entryDy=0;fontSize=12;startSize=8;endSize=8;" edge="1" parent="1" source="9aZO0Hwe2t4U4SfMm30W-29" target="9aZO0Hwe2t4U4SfMm30W-35">
          <mxGeometry relative="1" as="geometry" />
        </mxCell>
      </root>
    </mxGraphModel>
  </diagram>
  <diagram id="7EPYCXPZdryvPyIu6g5l" name="Page-5">
    <mxGraphModel grid="0" page="0" gridSize="10" guides="1" tooltips="1" connect="1" arrows="1" fold="1" pageScale="1" pageWidth="850" pageHeight="1100" math="0" shadow="0">
      <root>
        <mxCell id="0" />
        <mxCell id="1" parent="0" />
        <mxCell id="y4yvex5UKVzrY2GJAIfY-1" value="" style="group" connectable="0" vertex="1" parent="1">
          <mxGeometry x="-185" y="11" width="120" height="60" as="geometry" />
        </mxCell>
        <mxCell id="y4yvex5UKVzrY2GJAIfY-2" value="&lt;div&gt;&lt;br&gt;&lt;/div&gt;&lt;div&gt;Москва&lt;/div&gt;" style="rounded=0;whiteSpace=wrap;html=1;" vertex="1" parent="y4yvex5UKVzrY2GJAIfY-1">
          <mxGeometry width="120" height="60" as="geometry" />
        </mxCell>
        <mxCell id="y4yvex5UKVzrY2GJAIfY-3" value="1" style="rounded=0;whiteSpace=wrap;html=1;" vertex="1" parent="y4yvex5UKVzrY2GJAIfY-1">
          <mxGeometry x="41" width="38" height="24" as="geometry" />
        </mxCell>
        <mxCell id="y4yvex5UKVzrY2GJAIfY-4" value="" style="group" connectable="0" vertex="1" parent="1">
          <mxGeometry x="-55" y="11" width="120" height="60" as="geometry" />
        </mxCell>
        <mxCell id="y4yvex5UKVzrY2GJAIfY-5" value="&lt;div&gt;&lt;br&gt;&lt;/div&gt;&lt;div&gt;Санкт-Петербург&lt;/div&gt;" style="rounded=0;whiteSpace=wrap;html=1;" vertex="1" parent="y4yvex5UKVzrY2GJAIfY-4">
          <mxGeometry width="120" height="60" as="geometry" />
        </mxCell>
        <mxCell id="y4yvex5UKVzrY2GJAIfY-6" value="2" style="rounded=0;whiteSpace=wrap;html=1;" vertex="1" parent="y4yvex5UKVzrY2GJAIfY-4">
          <mxGeometry x="41" width="38" height="24" as="geometry" />
        </mxCell>
        <mxCell id="y4yvex5UKVzrY2GJAIfY-7" value="" style="group" connectable="0" vertex="1" parent="1">
          <mxGeometry x="75" y="11" width="120" height="60" as="geometry" />
        </mxCell>
        <mxCell id="y4yvex5UKVzrY2GJAIfY-8" value="&lt;br&gt;Новосибирск" style="rounded=0;whiteSpace=wrap;html=1;" vertex="1" parent="y4yvex5UKVzrY2GJAIfY-7">
          <mxGeometry width="120" height="60" as="geometry" />
        </mxCell>
        <mxCell id="y4yvex5UKVzrY2GJAIfY-9" value="3" style="rounded=0;whiteSpace=wrap;html=1;" vertex="1" parent="y4yvex5UKVzrY2GJAIfY-7">
          <mxGeometry x="41" width="38" height="24" as="geometry" />
        </mxCell>
        <mxCell id="y4yvex5UKVzrY2GJAIfY-10" value="" style="group" connectable="0" vertex="1" parent="1">
          <mxGeometry x="205" y="11" width="120" height="60" as="geometry" />
        </mxCell>
        <mxCell id="y4yvex5UKVzrY2GJAIfY-11" value="&lt;br&gt;Екатеринбург" style="rounded=0;whiteSpace=wrap;html=1;" vertex="1" parent="y4yvex5UKVzrY2GJAIfY-10">
          <mxGeometry width="120" height="60" as="geometry" />
        </mxCell>
        <mxCell id="y4yvex5UKVzrY2GJAIfY-12" value="4" style="rounded=0;whiteSpace=wrap;html=1;" vertex="1" parent="y4yvex5UKVzrY2GJAIfY-10">
          <mxGeometry x="41" width="38" height="24" as="geometry" />
        </mxCell>
        <mxCell id="y4yvex5UKVzrY2GJAIfY-13" value="" style="group" connectable="0" vertex="1" parent="1">
          <mxGeometry x="337" y="11" width="120" height="60" as="geometry" />
        </mxCell>
        <mxCell id="y4yvex5UKVzrY2GJAIfY-14" value="&lt;br&gt;Казань" style="rounded=0;whiteSpace=wrap;html=1;" vertex="1" parent="y4yvex5UKVzrY2GJAIfY-13">
          <mxGeometry width="120" height="60" as="geometry" />
        </mxCell>
        <mxCell id="y4yvex5UKVzrY2GJAIfY-15" value="5" style="rounded=0;whiteSpace=wrap;html=1;" vertex="1" parent="y4yvex5UKVzrY2GJAIfY-13">
          <mxGeometry x="41" width="38" height="24" as="geometry" />
        </mxCell>
        <mxCell id="nEQOu6vUDV0OqYBL3zQe-1" value="" style="group" connectable="0" vertex="1" parent="1">
          <mxGeometry x="-167.5" y="-153" width="85" height="87" as="geometry" />
        </mxCell>
        <mxCell id="nEQOu6vUDV0OqYBL3zQe-2" value="Иван" style="ellipse;whiteSpace=wrap;html=1;aspect=fixed;" vertex="1" parent="nEQOu6vUDV0OqYBL3zQe-1">
          <mxGeometry width="80.52631578947368" height="80.52631578947368" as="geometry" />
        </mxCell>
        <mxCell id="nEQOu6vUDV0OqYBL3zQe-3" value="1" style="ellipse;whiteSpace=wrap;html=1;aspect=fixed;" vertex="1" parent="nEQOu6vUDV0OqYBL3zQe-1">
          <mxGeometry x="29.325000000000003" width="24.963157894736845" height="24.963157894736845" as="geometry" />
        </mxCell>
        <mxCell id="nEQOu6vUDV0OqYBL3zQe-4" value="" style="group" connectable="0" vertex="1" parent="1">
          <mxGeometry x="-291" y="-153" width="85" height="87" as="geometry" />
        </mxCell>
        <mxCell id="nEQOu6vUDV0OqYBL3zQe-5" value="Мария" style="ellipse;whiteSpace=wrap;html=1;aspect=fixed;" vertex="1" parent="nEQOu6vUDV0OqYBL3zQe-4">
          <mxGeometry width="80.52631578947368" height="80.52631578947368" as="geometry" />
        </mxCell>
        <mxCell id="nEQOu6vUDV0OqYBL3zQe-6" value="2" style="ellipse;whiteSpace=wrap;html=1;aspect=fixed;" vertex="1" parent="nEQOu6vUDV0OqYBL3zQe-4">
          <mxGeometry x="29.325000000000003" width="24.963157894736845" height="24.963157894736845" as="geometry" />
        </mxCell>
        <mxCell id="nEQOu6vUDV0OqYBL3zQe-7" value="" style="group" connectable="0" vertex="1" parent="1">
          <mxGeometry x="-71" y="-153" width="85" height="87" as="geometry" />
        </mxCell>
        <mxCell id="nEQOu6vUDV0OqYBL3zQe-8" value="Петр" style="ellipse;whiteSpace=wrap;html=1;aspect=fixed;" vertex="1" parent="nEQOu6vUDV0OqYBL3zQe-7">
          <mxGeometry width="80.52631578947368" height="80.52631578947368" as="geometry" />
        </mxCell>
        <mxCell id="nEQOu6vUDV0OqYBL3zQe-9" value="3" style="ellipse;whiteSpace=wrap;html=1;aspect=fixed;" vertex="1" parent="nEQOu6vUDV0OqYBL3zQe-7">
          <mxGeometry x="29.325000000000003" width="24.963157894736845" height="24.963157894736845" as="geometry" />
        </mxCell>
        <mxCell id="nEQOu6vUDV0OqYBL3zQe-10" value="" style="group" connectable="0" vertex="1" parent="1">
          <mxGeometry x="-313" y="61" width="85" height="87" as="geometry" />
        </mxCell>
        <mxCell id="nEQOu6vUDV0OqYBL3zQe-11" value="Елена" style="ellipse;whiteSpace=wrap;html=1;aspect=fixed;" vertex="1" parent="nEQOu6vUDV0OqYBL3zQe-10">
          <mxGeometry width="80.52631578947368" height="80.52631578947368" as="geometry" />
        </mxCell>
        <mxCell id="nEQOu6vUDV0OqYBL3zQe-12" value="4" style="ellipse;whiteSpace=wrap;html=1;aspect=fixed;" vertex="1" parent="nEQOu6vUDV0OqYBL3zQe-10">
          <mxGeometry x="29.325000000000003" width="24.963157894736845" height="24.963157894736845" as="geometry" />
        </mxCell>
        <mxCell id="nEQOu6vUDV0OqYBL3zQe-13" value="" style="group" connectable="0" vertex="1" parent="1">
          <mxGeometry x="90" y="125" width="85" height="87" as="geometry" />
        </mxCell>
        <mxCell id="nEQOu6vUDV0OqYBL3zQe-44" style="edgeStyle=none;curved=1;rounded=0;orthogonalLoop=1;jettySize=auto;html=1;exitX=0.5;exitY=1;exitDx=0;exitDy=0;fontSize=12;startSize=8;endSize=8;" edge="1" parent="nEQOu6vUDV0OqYBL3zQe-13" source="nEQOu6vUDV0OqYBL3zQe-14">
          <mxGeometry relative="1" as="geometry">
            <mxPoint x="40" y="81" as="targetPoint" />
          </mxGeometry>
        </mxCell>
        <mxCell id="nEQOu6vUDV0OqYBL3zQe-14" value="Алексей" style="ellipse;whiteSpace=wrap;html=1;aspect=fixed;" vertex="1" parent="nEQOu6vUDV0OqYBL3zQe-13">
          <mxGeometry width="80.52631578947368" height="80.52631578947368" as="geometry" />
        </mxCell>
        <mxCell id="nEQOu6vUDV0OqYBL3zQe-15" value="5" style="ellipse;whiteSpace=wrap;html=1;aspect=fixed;" vertex="1" parent="nEQOu6vUDV0OqYBL3zQe-13">
          <mxGeometry x="29.325000000000003" width="24.963157894736845" height="24.963157894736845" as="geometry" />
        </mxCell>
        <mxCell id="nEQOu6vUDV0OqYBL3zQe-16" value="" style="group" connectable="0" vertex="1" parent="1">
          <mxGeometry x="-346" y="-40" width="85" height="87" as="geometry" />
        </mxCell>
        <mxCell id="nEQOu6vUDV0OqYBL3zQe-17" value="Ольга" style="ellipse;whiteSpace=wrap;html=1;aspect=fixed;" vertex="1" parent="nEQOu6vUDV0OqYBL3zQe-16">
          <mxGeometry width="80.52631578947368" height="80.52631578947368" as="geometry" />
        </mxCell>
        <mxCell id="nEQOu6vUDV0OqYBL3zQe-18" value="6" style="ellipse;whiteSpace=wrap;html=1;aspect=fixed;" vertex="1" parent="nEQOu6vUDV0OqYBL3zQe-16">
          <mxGeometry x="29.325000000000003" width="24.963157894736845" height="24.963157894736845" as="geometry" />
        </mxCell>
        <mxCell id="nEQOu6vUDV0OqYBL3zQe-19" value="" style="group" connectable="0" vertex="1" parent="1">
          <mxGeometry x="-37.5" y="142" width="85" height="87" as="geometry" />
        </mxCell>
        <mxCell id="nEQOu6vUDV0OqYBL3zQe-20" value="Сергей" style="ellipse;whiteSpace=wrap;html=1;aspect=fixed;" vertex="1" parent="nEQOu6vUDV0OqYBL3zQe-19">
          <mxGeometry width="80.52631578947368" height="80.52631578947368" as="geometry" />
        </mxCell>
        <mxCell id="nEQOu6vUDV0OqYBL3zQe-21" value="7" style="ellipse;whiteSpace=wrap;html=1;aspect=fixed;" vertex="1" parent="nEQOu6vUDV0OqYBL3zQe-19">
          <mxGeometry x="29.325000000000003" width="24.963157894736845" height="24.963157894736845" as="geometry" />
        </mxCell>
        <mxCell id="nEQOu6vUDV0OqYBL3zQe-22" value="" style="group" connectable="0" vertex="1" parent="1">
          <mxGeometry x="265" y="-156" width="85" height="87" as="geometry" />
        </mxCell>
        <mxCell id="nEQOu6vUDV0OqYBL3zQe-23" value="Анна" style="ellipse;whiteSpace=wrap;html=1;aspect=fixed;" vertex="1" parent="nEQOu6vUDV0OqYBL3zQe-22">
          <mxGeometry width="80.52631578947368" height="80.52631578947368" as="geometry" />
        </mxCell>
        <mxCell id="nEQOu6vUDV0OqYBL3zQe-24" value="8" style="ellipse;whiteSpace=wrap;html=1;aspect=fixed;" vertex="1" parent="nEQOu6vUDV0OqYBL3zQe-22">
          <mxGeometry x="29.325000000000003" width="24.963157894736845" height="24.963157894736845" as="geometry" />
        </mxCell>
        <mxCell id="nEQOu6vUDV0OqYBL3zQe-25" value="" style="group" connectable="0" vertex="1" parent="1">
          <mxGeometry x="164" y="-153" width="85" height="87" as="geometry" />
        </mxCell>
        <mxCell id="nEQOu6vUDV0OqYBL3zQe-26" value="Дмитрий" style="ellipse;whiteSpace=wrap;html=1;aspect=fixed;" vertex="1" parent="nEQOu6vUDV0OqYBL3zQe-25">
          <mxGeometry width="80.52631578947368" height="80.52631578947368" as="geometry" />
        </mxCell>
        <mxCell id="nEQOu6vUDV0OqYBL3zQe-27" value="9" style="ellipse;whiteSpace=wrap;html=1;aspect=fixed;" vertex="1" parent="nEQOu6vUDV0OqYBL3zQe-25">
          <mxGeometry x="29.325000000000003" width="24.963157894736845" height="24.963157894736845" as="geometry" />
        </mxCell>
        <mxCell id="nEQOu6vUDV0OqYBL3zQe-28" value="" style="group" connectable="0" vertex="1" parent="1">
          <mxGeometry x="372" y="-153" width="85" height="87" as="geometry" />
        </mxCell>
        <mxCell id="nEQOu6vUDV0OqYBL3zQe-29" value="Екатерина" style="ellipse;whiteSpace=wrap;html=1;aspect=fixed;" vertex="1" parent="nEQOu6vUDV0OqYBL3zQe-28">
          <mxGeometry width="80.52631578947368" height="80.52631578947368" as="geometry" />
        </mxCell>
        <mxCell id="nEQOu6vUDV0OqYBL3zQe-30" value="10" style="ellipse;whiteSpace=wrap;html=1;aspect=fixed;" vertex="1" parent="nEQOu6vUDV0OqYBL3zQe-28">
          <mxGeometry x="29.325000000000003" width="24.963157894736845" height="24.963157894736845" as="geometry" />
        </mxCell>
        <mxCell id="nEQOu6vUDV0OqYBL3zQe-31" value="" style="group" connectable="0" vertex="1" parent="1">
          <mxGeometry x="-178" y="139" width="85" height="87" as="geometry" />
        </mxCell>
        <mxCell id="nEQOu6vUDV0OqYBL3zQe-32" value="Николай" style="ellipse;whiteSpace=wrap;html=1;aspect=fixed;" vertex="1" parent="nEQOu6vUDV0OqYBL3zQe-31">
          <mxGeometry width="80.52631578947368" height="80.52631578947368" as="geometry" />
        </mxCell>
        <mxCell id="nEQOu6vUDV0OqYBL3zQe-33" value="11" style="ellipse;whiteSpace=wrap;html=1;aspect=fixed;" vertex="1" parent="nEQOu6vUDV0OqYBL3zQe-31">
          <mxGeometry x="29.325000000000003" width="24.963157894736845" height="24.963157894736845" as="geometry" />
        </mxCell>
        <mxCell id="nEQOu6vUDV0OqYBL3zQe-34" value="" style="group" connectable="0" vertex="1" parent="1">
          <mxGeometry x="44" y="-153" width="85" height="87" as="geometry" />
        </mxCell>
        <mxCell id="nEQOu6vUDV0OqYBL3zQe-35" value="Татьяна" style="ellipse;whiteSpace=wrap;html=1;aspect=fixed;" vertex="1" parent="nEQOu6vUDV0OqYBL3zQe-34">
          <mxGeometry width="80.52631578947368" height="80.52631578947368" as="geometry" />
        </mxCell>
        <mxCell id="nEQOu6vUDV0OqYBL3zQe-36" value="12" style="ellipse;whiteSpace=wrap;html=1;aspect=fixed;" vertex="1" parent="nEQOu6vUDV0OqYBL3zQe-34">
          <mxGeometry x="29.325000000000003" width="24.963157894736845" height="24.963157894736845" as="geometry" />
        </mxCell>
        <mxCell id="nEQOu6vUDV0OqYBL3zQe-37" style="edgeStyle=none;curved=1;rounded=0;orthogonalLoop=1;jettySize=auto;html=1;exitX=0.5;exitY=1;exitDx=0;exitDy=0;entryX=0.5;entryY=0;entryDx=0;entryDy=0;fontSize=12;startSize=8;endSize=8;" edge="1" parent="1" source="nEQOu6vUDV0OqYBL3zQe-2" target="y4yvex5UKVzrY2GJAIfY-3">
          <mxGeometry relative="1" as="geometry" />
        </mxCell>
        <mxCell id="nEQOu6vUDV0OqYBL3zQe-38" style="edgeStyle=none;curved=1;rounded=0;orthogonalLoop=1;jettySize=auto;html=1;exitX=1;exitY=1;exitDx=0;exitDy=0;entryX=0.25;entryY=0;entryDx=0;entryDy=0;fontSize=12;startSize=8;endSize=8;" edge="1" parent="1" source="nEQOu6vUDV0OqYBL3zQe-5" target="y4yvex5UKVzrY2GJAIfY-3">
          <mxGeometry relative="1" as="geometry" />
        </mxCell>
        <mxCell id="nEQOu6vUDV0OqYBL3zQe-39" style="edgeStyle=none;curved=1;rounded=0;orthogonalLoop=1;jettySize=auto;html=1;exitX=0.5;exitY=1;exitDx=0;exitDy=0;entryX=0.5;entryY=0;entryDx=0;entryDy=0;fontSize=12;startSize=8;endSize=8;" edge="1" parent="1" source="nEQOu6vUDV0OqYBL3zQe-8" target="y4yvex5UKVzrY2GJAIfY-6">
          <mxGeometry relative="1" as="geometry" />
        </mxCell>
        <mxCell id="nEQOu6vUDV0OqYBL3zQe-40" style="edgeStyle=none;curved=1;rounded=0;orthogonalLoop=1;jettySize=auto;html=1;exitX=1;exitY=0;exitDx=0;exitDy=0;entryX=0;entryY=0.5;entryDx=0;entryDy=0;fontSize=12;startSize=8;endSize=8;" edge="1" parent="1" source="nEQOu6vUDV0OqYBL3zQe-11" target="y4yvex5UKVzrY2GJAIfY-2">
          <mxGeometry relative="1" as="geometry" />
        </mxCell>
        <mxCell id="nEQOu6vUDV0OqYBL3zQe-41" style="edgeStyle=none;curved=1;rounded=0;orthogonalLoop=1;jettySize=auto;html=1;exitX=0.5;exitY=0;exitDx=0;exitDy=0;entryX=0.5;entryY=1;entryDx=0;entryDy=0;fontSize=12;startSize=8;endSize=8;" edge="1" parent="1" source="nEQOu6vUDV0OqYBL3zQe-15" target="y4yvex5UKVzrY2GJAIfY-8">
          <mxGeometry relative="1" as="geometry" />
        </mxCell>
        <mxCell id="nEQOu6vUDV0OqYBL3zQe-42" style="edgeStyle=none;curved=1;rounded=0;orthogonalLoop=1;jettySize=auto;html=1;exitX=1;exitY=0.5;exitDx=0;exitDy=0;entryX=0;entryY=0;entryDx=0;entryDy=0;fontSize=12;startSize=8;endSize=8;" edge="1" parent="1" source="nEQOu6vUDV0OqYBL3zQe-17" target="y4yvex5UKVzrY2GJAIfY-2">
          <mxGeometry relative="1" as="geometry" />
        </mxCell>
        <mxCell id="nEQOu6vUDV0OqYBL3zQe-43" style="edgeStyle=none;curved=1;rounded=0;orthogonalLoop=1;jettySize=auto;html=1;exitX=0.5;exitY=0;exitDx=0;exitDy=0;entryX=0.5;entryY=1;entryDx=0;entryDy=0;fontSize=12;startSize=8;endSize=8;" edge="1" parent="1" source="nEQOu6vUDV0OqYBL3zQe-21" target="y4yvex5UKVzrY2GJAIfY-5">
          <mxGeometry relative="1" as="geometry" />
        </mxCell>
        <mxCell id="nEQOu6vUDV0OqYBL3zQe-45" style="edgeStyle=none;curved=1;rounded=0;orthogonalLoop=1;jettySize=auto;html=1;exitX=0.5;exitY=1;exitDx=0;exitDy=0;entryX=0.5;entryY=0;entryDx=0;entryDy=0;fontSize=12;startSize=8;endSize=8;" edge="1" parent="1" source="nEQOu6vUDV0OqYBL3zQe-23" target="y4yvex5UKVzrY2GJAIfY-12">
          <mxGeometry relative="1" as="geometry" />
        </mxCell>
        <mxCell id="nEQOu6vUDV0OqYBL3zQe-46" style="edgeStyle=none;curved=1;rounded=0;orthogonalLoop=1;jettySize=auto;html=1;exitX=0.5;exitY=1;exitDx=0;exitDy=0;entryX=0.75;entryY=0;entryDx=0;entryDy=0;fontSize=12;startSize=8;endSize=8;" edge="1" parent="1" source="nEQOu6vUDV0OqYBL3zQe-26" target="y4yvex5UKVzrY2GJAIfY-8">
          <mxGeometry relative="1" as="geometry" />
        </mxCell>
        <mxCell id="nEQOu6vUDV0OqYBL3zQe-47" style="edgeStyle=none;curved=1;rounded=0;orthogonalLoop=1;jettySize=auto;html=1;exitX=0.5;exitY=1;exitDx=0;exitDy=0;entryX=0.5;entryY=0;entryDx=0;entryDy=0;fontSize=12;startSize=8;endSize=8;" edge="1" parent="1" source="nEQOu6vUDV0OqYBL3zQe-29" target="y4yvex5UKVzrY2GJAIfY-15">
          <mxGeometry relative="1" as="geometry" />
        </mxCell>
        <mxCell id="nEQOu6vUDV0OqYBL3zQe-48" style="edgeStyle=none;curved=1;rounded=0;orthogonalLoop=1;jettySize=auto;html=1;exitX=0.5;exitY=0;exitDx=0;exitDy=0;entryX=0.5;entryY=1;entryDx=0;entryDy=0;fontSize=12;startSize=8;endSize=8;" edge="1" parent="1" source="nEQOu6vUDV0OqYBL3zQe-33" target="y4yvex5UKVzrY2GJAIfY-2">
          <mxGeometry relative="1" as="geometry" />
        </mxCell>
        <mxCell id="nEQOu6vUDV0OqYBL3zQe-49" style="edgeStyle=none;curved=1;rounded=0;orthogonalLoop=1;jettySize=auto;html=1;exitX=0.5;exitY=1;exitDx=0;exitDy=0;entryX=0.25;entryY=0;entryDx=0;entryDy=0;fontSize=12;startSize=8;endSize=8;" edge="1" parent="1" source="nEQOu6vUDV0OqYBL3zQe-35" target="y4yvex5UKVzrY2GJAIfY-9">
          <mxGeometry relative="1" as="geometry" />
        </mxCell>
      </root>
    </mxGraphModel>
  </diagram>
  <diagram id="eRSWF-tqBmehdV4CmRsm" name="Page-6">
    <mxGraphModel grid="0" page="0" gridSize="10" guides="1" tooltips="1" connect="1" arrows="1" fold="1" pageScale="1" pageWidth="850" pageHeight="1100" math="0" shadow="0">
      <root>
        <mxCell id="0" />
        <mxCell id="1" parent="0" />
        <mxCell id="NoyXi922x9l90tTrYQwU-1" value="" style="group" connectable="0" vertex="1" parent="1">
          <mxGeometry x="-20" y="74" width="85" height="87" as="geometry" />
        </mxCell>
        <mxCell id="NoyXi922x9l90tTrYQwU-2" value="Иван" style="ellipse;whiteSpace=wrap;html=1;aspect=fixed;" vertex="1" parent="NoyXi922x9l90tTrYQwU-1">
          <mxGeometry width="80.52631578947368" height="80.52631578947368" as="geometry" />
        </mxCell>
        <mxCell id="NoyXi922x9l90tTrYQwU-3" value="1" style="ellipse;whiteSpace=wrap;html=1;aspect=fixed;" vertex="1" parent="NoyXi922x9l90tTrYQwU-1">
          <mxGeometry x="29.325000000000003" width="24.963157894736845" height="24.963157894736845" as="geometry" />
        </mxCell>
        <mxCell id="NoyXi922x9l90tTrYQwU-4" value="" style="group" connectable="0" vertex="1" parent="1">
          <mxGeometry x="52" y="497" width="85" height="87" as="geometry" />
        </mxCell>
        <mxCell id="NoyXi922x9l90tTrYQwU-5" value="Мария" style="ellipse;whiteSpace=wrap;html=1;aspect=fixed;" vertex="1" parent="NoyXi922x9l90tTrYQwU-4">
          <mxGeometry width="80.52631578947368" height="80.52631578947368" as="geometry" />
        </mxCell>
        <mxCell id="NoyXi922x9l90tTrYQwU-6" value="2" style="ellipse;whiteSpace=wrap;html=1;aspect=fixed;" vertex="1" parent="NoyXi922x9l90tTrYQwU-4">
          <mxGeometry x="29.325000000000003" width="24.963157894736845" height="24.963157894736845" as="geometry" />
        </mxCell>
        <mxCell id="NoyXi922x9l90tTrYQwU-7" value="" style="group" connectable="0" vertex="1" parent="1">
          <mxGeometry x="127" y="74" width="85" height="87" as="geometry" />
        </mxCell>
        <mxCell id="NoyXi922x9l90tTrYQwU-8" value="Петр" style="ellipse;whiteSpace=wrap;html=1;aspect=fixed;" vertex="1" parent="NoyXi922x9l90tTrYQwU-7">
          <mxGeometry width="80.52631578947368" height="80.52631578947368" as="geometry" />
        </mxCell>
        <mxCell id="NoyXi922x9l90tTrYQwU-9" value="3" style="ellipse;whiteSpace=wrap;html=1;aspect=fixed;" vertex="1" parent="NoyXi922x9l90tTrYQwU-7">
          <mxGeometry x="29.325000000000003" width="24.963157894736845" height="24.963157894736845" as="geometry" />
        </mxCell>
        <mxCell id="NoyXi922x9l90tTrYQwU-10" value="" style="group" connectable="0" vertex="1" parent="1">
          <mxGeometry x="338.5" y="74" width="85" height="87" as="geometry" />
        </mxCell>
        <mxCell id="NoyXi922x9l90tTrYQwU-11" value="Елена" style="ellipse;whiteSpace=wrap;html=1;aspect=fixed;" vertex="1" parent="NoyXi922x9l90tTrYQwU-10">
          <mxGeometry width="80.52631578947368" height="80.52631578947368" as="geometry" />
        </mxCell>
        <mxCell id="NoyXi922x9l90tTrYQwU-12" value="4" style="ellipse;whiteSpace=wrap;html=1;aspect=fixed;" vertex="1" parent="NoyXi922x9l90tTrYQwU-10">
          <mxGeometry x="29.325000000000003" width="24.963157894736845" height="24.963157894736845" as="geometry" />
        </mxCell>
        <mxCell id="NoyXi922x9l90tTrYQwU-13" value="" style="group" connectable="0" vertex="1" parent="1">
          <mxGeometry x="464.5" y="74" width="85" height="87" as="geometry" />
        </mxCell>
        <mxCell id="NoyXi922x9l90tTrYQwU-14" value="Алексей" style="ellipse;whiteSpace=wrap;html=1;aspect=fixed;" vertex="1" parent="NoyXi922x9l90tTrYQwU-13">
          <mxGeometry width="80.52631578947368" height="80.52631578947368" as="geometry" />
        </mxCell>
        <mxCell id="NoyXi922x9l90tTrYQwU-15" value="5" style="ellipse;whiteSpace=wrap;html=1;aspect=fixed;" vertex="1" parent="NoyXi922x9l90tTrYQwU-13">
          <mxGeometry x="29.325000000000003" width="24.963157894736845" height="24.963157894736845" as="geometry" />
        </mxCell>
        <mxCell id="NoyXi922x9l90tTrYQwU-19" value="" style="group" connectable="0" vertex="1" parent="1">
          <mxGeometry x="52" y="390" width="85" height="87" as="geometry" />
        </mxCell>
        <mxCell id="NoyXi922x9l90tTrYQwU-20" value="Сергей" style="ellipse;whiteSpace=wrap;html=1;aspect=fixed;" vertex="1" parent="NoyXi922x9l90tTrYQwU-19">
          <mxGeometry width="80.52631578947368" height="80.52631578947368" as="geometry" />
        </mxCell>
        <mxCell id="NoyXi922x9l90tTrYQwU-21" value="7" style="ellipse;whiteSpace=wrap;html=1;aspect=fixed;" vertex="1" parent="NoyXi922x9l90tTrYQwU-19">
          <mxGeometry x="29.325000000000003" width="24.963157894736845" height="24.963157894736845" as="geometry" />
        </mxCell>
        <mxCell id="NoyXi922x9l90tTrYQwU-22" value="" style="group" connectable="0" vertex="1" parent="1">
          <mxGeometry x="722.5" y="74" width="85" height="87" as="geometry" />
        </mxCell>
        <mxCell id="NoyXi922x9l90tTrYQwU-23" value="Анна" style="ellipse;whiteSpace=wrap;html=1;aspect=fixed;" vertex="1" parent="NoyXi922x9l90tTrYQwU-22">
          <mxGeometry width="80.52631578947368" height="80.52631578947368" as="geometry" />
        </mxCell>
        <mxCell id="NoyXi922x9l90tTrYQwU-24" value="8" style="ellipse;whiteSpace=wrap;html=1;aspect=fixed;" vertex="1" parent="NoyXi922x9l90tTrYQwU-22">
          <mxGeometry x="29.325000000000003" width="24.963157894736845" height="24.963157894736845" as="geometry" />
        </mxCell>
        <mxCell id="NoyXi922x9l90tTrYQwU-25" value="" style="group" connectable="0" vertex="1" parent="1">
          <mxGeometry x="595.5" y="74" width="85" height="87" as="geometry" />
        </mxCell>
        <mxCell id="NoyXi922x9l90tTrYQwU-26" value="Дмитрий" style="ellipse;whiteSpace=wrap;html=1;aspect=fixed;" vertex="1" parent="NoyXi922x9l90tTrYQwU-25">
          <mxGeometry width="80.52631578947368" height="80.52631578947368" as="geometry" />
        </mxCell>
        <mxCell id="NoyXi922x9l90tTrYQwU-27" value="9" style="ellipse;whiteSpace=wrap;html=1;aspect=fixed;" vertex="1" parent="NoyXi922x9l90tTrYQwU-25">
          <mxGeometry x="29.325000000000003" width="24.963157894736845" height="24.963157894736845" as="geometry" />
        </mxCell>
        <mxCell id="NoyXi922x9l90tTrYQwU-28" value="" style="group" connectable="0" vertex="1" parent="1">
          <mxGeometry x="595.5" y="390" width="85" height="87" as="geometry" />
        </mxCell>
        <mxCell id="NoyXi922x9l90tTrYQwU-29" value="Екатерина" style="ellipse;whiteSpace=wrap;html=1;aspect=fixed;" vertex="1" parent="NoyXi922x9l90tTrYQwU-28">
          <mxGeometry width="80.52631578947368" height="80.52631578947368" as="geometry" />
        </mxCell>
        <mxCell id="NoyXi922x9l90tTrYQwU-30" value="10" style="ellipse;whiteSpace=wrap;html=1;aspect=fixed;" vertex="1" parent="NoyXi922x9l90tTrYQwU-28">
          <mxGeometry x="29.325000000000003" width="24.963157894736845" height="24.963157894736845" as="geometry" />
        </mxCell>
        <mxCell id="NoyXi922x9l90tTrYQwU-31" value="" style="group" connectable="0" vertex="1" parent="1">
          <mxGeometry x="-133" y="390" width="85" height="87" as="geometry" />
        </mxCell>
        <mxCell id="NoyXi922x9l90tTrYQwU-32" value="Николай" style="ellipse;whiteSpace=wrap;html=1;aspect=fixed;" vertex="1" parent="NoyXi922x9l90tTrYQwU-31">
          <mxGeometry width="80.52631578947368" height="80.52631578947368" as="geometry" />
        </mxCell>
        <mxCell id="NoyXi922x9l90tTrYQwU-33" value="11" style="ellipse;whiteSpace=wrap;html=1;aspect=fixed;" vertex="1" parent="NoyXi922x9l90tTrYQwU-31">
          <mxGeometry x="29.325000000000003" width="24.963157894736845" height="24.963157894736845" as="geometry" />
        </mxCell>
        <mxCell id="NoyXi922x9l90tTrYQwU-34" value="" style="group" connectable="0" vertex="1" parent="1">
          <mxGeometry x="464.5" y="390" width="85" height="87" as="geometry" />
        </mxCell>
        <mxCell id="NoyXi922x9l90tTrYQwU-35" value="Татьяна" style="ellipse;whiteSpace=wrap;html=1;aspect=fixed;" vertex="1" parent="NoyXi922x9l90tTrYQwU-34">
          <mxGeometry width="80.52631578947368" height="80.52631578947368" as="geometry" />
        </mxCell>
        <mxCell id="NoyXi922x9l90tTrYQwU-36" value="12" style="ellipse;whiteSpace=wrap;html=1;aspect=fixed;" vertex="1" parent="NoyXi922x9l90tTrYQwU-34">
          <mxGeometry x="29.325000000000003" width="24.963157894736845" height="24.963157894736845" as="geometry" />
        </mxCell>
        <mxCell id="UrWqPUGJvU5EPDBKr2Z5-1" value="" style="group" connectable="0" vertex="1" parent="1">
          <mxGeometry x="-68" y="278" width="120" height="80" as="geometry" />
        </mxCell>
        <mxCell id="UrWqPUGJvU5EPDBKr2Z5-2" value="Чтение" style="shape=hexagon;perimeter=hexagonPerimeter2;whiteSpace=wrap;html=1;fixedSize=1;" vertex="1" parent="UrWqPUGJvU5EPDBKr2Z5-1">
          <mxGeometry width="120" height="80" as="geometry" />
        </mxCell>
        <mxCell id="UrWqPUGJvU5EPDBKr2Z5-3" value="1" style="shape=hexagon;perimeter=hexagonPerimeter2;whiteSpace=wrap;html=1;fixedSize=1;size=7.566680908203125;" vertex="1" parent="UrWqPUGJvU5EPDBKr2Z5-1">
          <mxGeometry x="47" width="26" height="20" as="geometry" />
        </mxCell>
        <mxCell id="UrWqPUGJvU5EPDBKr2Z5-4" value="" style="group" connectable="0" vertex="1" parent="1">
          <mxGeometry x="59" y="278" width="120" height="80" as="geometry" />
        </mxCell>
        <mxCell id="UrWqPUGJvU5EPDBKr2Z5-5" value="Спорт" style="shape=hexagon;perimeter=hexagonPerimeter2;whiteSpace=wrap;html=1;fixedSize=1;" vertex="1" parent="UrWqPUGJvU5EPDBKr2Z5-4">
          <mxGeometry x="3" width="120" height="80" as="geometry" />
        </mxCell>
        <mxCell id="UrWqPUGJvU5EPDBKr2Z5-6" value="2" style="shape=hexagon;perimeter=hexagonPerimeter2;whiteSpace=wrap;html=1;fixedSize=1;size=7.566680908203125;" vertex="1" parent="UrWqPUGJvU5EPDBKr2Z5-4">
          <mxGeometry x="47" width="26" height="20" as="geometry" />
        </mxCell>
        <mxCell id="UrWqPUGJvU5EPDBKr2Z5-7" value="" style="group" connectable="0" vertex="1" parent="1">
          <mxGeometry x="192" y="278" width="120" height="80" as="geometry" />
        </mxCell>
        <mxCell id="UrWqPUGJvU5EPDBKr2Z5-8" value="Музыка" style="shape=hexagon;perimeter=hexagonPerimeter2;whiteSpace=wrap;html=1;fixedSize=1;" vertex="1" parent="UrWqPUGJvU5EPDBKr2Z5-7">
          <mxGeometry width="120" height="80" as="geometry" />
        </mxCell>
        <mxCell id="UrWqPUGJvU5EPDBKr2Z5-9" value="3" style="shape=hexagon;perimeter=hexagonPerimeter2;whiteSpace=wrap;html=1;fixedSize=1;size=7.566680908203125;" vertex="1" parent="UrWqPUGJvU5EPDBKr2Z5-7">
          <mxGeometry x="47" width="26" height="20" as="geometry" />
        </mxCell>
        <mxCell id="UrWqPUGJvU5EPDBKr2Z5-10" value="" style="group" connectable="0" vertex="1" parent="1">
          <mxGeometry x="321" y="278" width="120" height="80" as="geometry" />
        </mxCell>
        <mxCell id="UrWqPUGJvU5EPDBKr2Z5-11" value="Путешествия" style="shape=hexagon;perimeter=hexagonPerimeter2;whiteSpace=wrap;html=1;fixedSize=1;" vertex="1" parent="UrWqPUGJvU5EPDBKr2Z5-10">
          <mxGeometry width="120" height="80" as="geometry" />
        </mxCell>
        <mxCell id="UrWqPUGJvU5EPDBKr2Z5-12" value="4" style="shape=hexagon;perimeter=hexagonPerimeter2;whiteSpace=wrap;html=1;fixedSize=1;size=6.809500558035836;" vertex="1" parent="UrWqPUGJvU5EPDBKr2Z5-10">
          <mxGeometry x="47" width="26" height="20" as="geometry" />
        </mxCell>
        <mxCell id="UrWqPUGJvU5EPDBKr2Z5-13" value="" style="group" connectable="0" vertex="1" parent="1">
          <mxGeometry x="447" y="278" width="120" height="80" as="geometry" />
        </mxCell>
        <mxCell id="UrWqPUGJvU5EPDBKr2Z5-14" value="Программирование" style="shape=hexagon;perimeter=hexagonPerimeter2;whiteSpace=wrap;html=1;fixedSize=1;" vertex="1" parent="UrWqPUGJvU5EPDBKr2Z5-13">
          <mxGeometry x="2" width="120" height="80" as="geometry" />
        </mxCell>
        <mxCell id="UrWqPUGJvU5EPDBKr2Z5-15" value="5" style="shape=hexagon;perimeter=hexagonPerimeter2;whiteSpace=wrap;html=1;fixedSize=1;size=7.566680908203125;" vertex="1" parent="UrWqPUGJvU5EPDBKr2Z5-13">
          <mxGeometry x="47" width="26" height="20" as="geometry" />
        </mxCell>
        <mxCell id="UrWqPUGJvU5EPDBKr2Z5-16" value="" style="group" connectable="0" vertex="1" parent="1">
          <mxGeometry x="578" y="280" width="120" height="80" as="geometry" />
        </mxCell>
        <mxCell id="UrWqPUGJvU5EPDBKr2Z5-17" value="Готовка" style="shape=hexagon;perimeter=hexagonPerimeter2;whiteSpace=wrap;html=1;fixedSize=1;" vertex="1" parent="UrWqPUGJvU5EPDBKr2Z5-16">
          <mxGeometry width="120" height="80" as="geometry" />
        </mxCell>
        <mxCell id="UrWqPUGJvU5EPDBKr2Z5-18" value="6" style="shape=hexagon;perimeter=hexagonPerimeter2;whiteSpace=wrap;html=1;fixedSize=1;size=7.566680908203125;" vertex="1" parent="UrWqPUGJvU5EPDBKr2Z5-16">
          <mxGeometry x="47" width="26" height="20" as="geometry" />
        </mxCell>
        <mxCell id="UrWqPUGJvU5EPDBKr2Z5-19" value="" style="group" connectable="0" vertex="1" parent="1">
          <mxGeometry x="705" y="280" width="120" height="80" as="geometry" />
        </mxCell>
        <mxCell id="UrWqPUGJvU5EPDBKr2Z5-20" value="Искусство" style="shape=hexagon;perimeter=hexagonPerimeter2;whiteSpace=wrap;html=1;fixedSize=1;" vertex="1" parent="UrWqPUGJvU5EPDBKr2Z5-19">
          <mxGeometry x="3" width="120" height="80" as="geometry" />
        </mxCell>
        <mxCell id="UrWqPUGJvU5EPDBKr2Z5-21" value="7" style="shape=hexagon;perimeter=hexagonPerimeter2;whiteSpace=wrap;html=1;fixedSize=1;size=7.566680908203125;" vertex="1" parent="UrWqPUGJvU5EPDBKr2Z5-19">
          <mxGeometry x="47" width="26" height="20" as="geometry" />
        </mxCell>
        <mxCell id="UrWqPUGJvU5EPDBKr2Z5-32" style="edgeStyle=none;curved=1;rounded=0;orthogonalLoop=1;jettySize=auto;html=1;exitX=0.5;exitY=1;exitDx=0;exitDy=0;entryX=0.625;entryY=0;entryDx=0;entryDy=0;fontSize=12;startSize=8;endSize=8;" edge="1" parent="1" source="NoyXi922x9l90tTrYQwU-2" target="UrWqPUGJvU5EPDBKr2Z5-3">
          <mxGeometry relative="1" as="geometry" />
        </mxCell>
        <mxCell id="UrWqPUGJvU5EPDBKr2Z5-33" style="edgeStyle=none;curved=1;rounded=0;orthogonalLoop=1;jettySize=auto;html=1;exitX=1;exitY=1;exitDx=0;exitDy=0;entryX=0.625;entryY=0;entryDx=0;entryDy=0;fontSize=12;startSize=8;endSize=8;" edge="1" parent="1" source="NoyXi922x9l90tTrYQwU-2" target="UrWqPUGJvU5EPDBKr2Z5-6">
          <mxGeometry relative="1" as="geometry" />
        </mxCell>
        <mxCell id="UrWqPUGJvU5EPDBKr2Z5-34" style="edgeStyle=none;curved=1;rounded=0;orthogonalLoop=1;jettySize=auto;html=1;exitX=1;exitY=0;exitDx=0;exitDy=0;entryX=0.5;entryY=1;entryDx=0;entryDy=0;fontSize=12;startSize=8;endSize=8;" edge="1" parent="1" source="NoyXi922x9l90tTrYQwU-5" target="UrWqPUGJvU5EPDBKr2Z5-11">
          <mxGeometry relative="1" as="geometry" />
        </mxCell>
        <mxCell id="UrWqPUGJvU5EPDBKr2Z5-35" style="edgeStyle=none;curved=1;rounded=0;orthogonalLoop=1;jettySize=auto;html=1;exitX=0;exitY=0;exitDx=0;exitDy=0;entryX=0.5;entryY=1;entryDx=0;entryDy=0;fontSize=12;startSize=8;endSize=8;" edge="1" parent="1" source="NoyXi922x9l90tTrYQwU-5" target="UrWqPUGJvU5EPDBKr2Z5-2">
          <mxGeometry relative="1" as="geometry" />
        </mxCell>
        <mxCell id="UrWqPUGJvU5EPDBKr2Z5-36" style="edgeStyle=none;curved=1;rounded=0;orthogonalLoop=1;jettySize=auto;html=1;exitX=0.5;exitY=1;exitDx=0;exitDy=0;entryX=0.625;entryY=0;entryDx=0;entryDy=0;fontSize=12;startSize=8;endSize=8;" edge="1" parent="1" source="NoyXi922x9l90tTrYQwU-8" target="UrWqPUGJvU5EPDBKr2Z5-5">
          <mxGeometry relative="1" as="geometry" />
        </mxCell>
        <mxCell id="UrWqPUGJvU5EPDBKr2Z5-37" style="edgeStyle=none;curved=1;rounded=0;orthogonalLoop=1;jettySize=auto;html=1;exitX=0.5;exitY=1;exitDx=0;exitDy=0;entryX=0.5;entryY=0;entryDx=0;entryDy=0;fontSize=12;startSize=8;endSize=8;" edge="1" parent="1" source="NoyXi922x9l90tTrYQwU-8" target="UrWqPUGJvU5EPDBKr2Z5-9">
          <mxGeometry relative="1" as="geometry" />
        </mxCell>
        <mxCell id="UrWqPUGJvU5EPDBKr2Z5-38" style="edgeStyle=none;curved=1;rounded=0;orthogonalLoop=1;jettySize=auto;html=1;exitX=0.5;exitY=1;exitDx=0;exitDy=0;entryX=0.375;entryY=0;entryDx=0;entryDy=0;fontSize=12;startSize=8;endSize=8;" edge="1" parent="1" source="NoyXi922x9l90tTrYQwU-11" target="UrWqPUGJvU5EPDBKr2Z5-12">
          <mxGeometry relative="1" as="geometry" />
        </mxCell>
        <mxCell id="UrWqPUGJvU5EPDBKr2Z5-39" style="edgeStyle=none;curved=1;rounded=0;orthogonalLoop=1;jettySize=auto;html=1;exitX=0.5;exitY=1;exitDx=0;exitDy=0;entryX=0.5;entryY=0;entryDx=0;entryDy=0;fontSize=12;startSize=8;endSize=8;" edge="1" parent="1" source="NoyXi922x9l90tTrYQwU-14" target="UrWqPUGJvU5EPDBKr2Z5-15">
          <mxGeometry relative="1" as="geometry" />
        </mxCell>
        <mxCell id="UrWqPUGJvU5EPDBKr2Z5-40" style="edgeStyle=none;curved=1;rounded=0;orthogonalLoop=1;jettySize=auto;html=1;exitX=0.5;exitY=0;exitDx=0;exitDy=0;entryX=0.5;entryY=1;entryDx=0;entryDy=0;fontSize=12;startSize=8;endSize=8;" edge="1" parent="1" source="NoyXi922x9l90tTrYQwU-21" target="UrWqPUGJvU5EPDBKr2Z5-5">
          <mxGeometry relative="1" as="geometry" />
        </mxCell>
        <mxCell id="UrWqPUGJvU5EPDBKr2Z5-41" style="edgeStyle=none;curved=1;rounded=0;orthogonalLoop=1;jettySize=auto;html=1;exitX=0.5;exitY=1;exitDx=0;exitDy=0;entryX=0.5;entryY=0;entryDx=0;entryDy=0;fontSize=12;startSize=8;endSize=8;" edge="1" parent="1" source="NoyXi922x9l90tTrYQwU-23" target="UrWqPUGJvU5EPDBKr2Z5-21">
          <mxGeometry relative="1" as="geometry" />
        </mxCell>
        <mxCell id="UrWqPUGJvU5EPDBKr2Z5-42" style="edgeStyle=none;curved=1;rounded=0;orthogonalLoop=1;jettySize=auto;html=1;exitX=0;exitY=1;exitDx=0;exitDy=0;entryX=0.625;entryY=0;entryDx=0;entryDy=0;fontSize=12;startSize=8;endSize=8;" edge="1" parent="1" source="NoyXi922x9l90tTrYQwU-26" target="UrWqPUGJvU5EPDBKr2Z5-14">
          <mxGeometry relative="1" as="geometry" />
        </mxCell>
        <mxCell id="UrWqPUGJvU5EPDBKr2Z5-43" style="edgeStyle=none;curved=1;rounded=0;orthogonalLoop=1;jettySize=auto;html=1;exitX=0.5;exitY=0;exitDx=0;exitDy=0;entryX=0.5;entryY=1;entryDx=0;entryDy=0;fontSize=12;startSize=8;endSize=8;" edge="1" parent="1" source="NoyXi922x9l90tTrYQwU-30" target="UrWqPUGJvU5EPDBKr2Z5-17">
          <mxGeometry relative="1" as="geometry" />
        </mxCell>
        <mxCell id="UrWqPUGJvU5EPDBKr2Z5-44" value="" style="edgeStyle=none;curved=1;rounded=0;orthogonalLoop=1;jettySize=auto;html=1;fontSize=12;startSize=8;endSize=8;" edge="1" parent="1" source="NoyXi922x9l90tTrYQwU-32" target="UrWqPUGJvU5EPDBKr2Z5-2">
          <mxGeometry relative="1" as="geometry" />
        </mxCell>
        <mxCell id="UrWqPUGJvU5EPDBKr2Z5-45" style="edgeStyle=none;curved=1;rounded=0;orthogonalLoop=1;jettySize=auto;html=1;exitX=0.5;exitY=0;exitDx=0;exitDy=0;entryX=0.5;entryY=1;entryDx=0;entryDy=0;fontSize=12;startSize=8;endSize=8;" edge="1" parent="1" source="NoyXi922x9l90tTrYQwU-36" target="UrWqPUGJvU5EPDBKr2Z5-14">
          <mxGeometry relative="1" as="geometry" />
        </mxCell>
        <mxCell id="UrWqPUGJvU5EPDBKr2Z5-46" style="edgeStyle=none;curved=1;rounded=0;orthogonalLoop=1;jettySize=auto;html=1;exitX=0;exitY=0;exitDx=0;exitDy=0;entryX=0.625;entryY=1;entryDx=0;entryDy=0;fontSize=12;startSize=8;endSize=8;" edge="1" parent="1" source="NoyXi922x9l90tTrYQwU-35" target="UrWqPUGJvU5EPDBKr2Z5-11">
          <mxGeometry relative="1" as="geometry" />
        </mxCell>
      </root>
    </mxGraphModel>
  </diagram>
</mxfile>
